# xmcd
#
# Track frame offsets:
#	150
#	19877
#	36863
#	53070
#	66252
#	89180
#	102227
#	117722
#	137963
#	162092
#	176755
#
# Disc length: 2569 seconds
#
# Revision: 1
# Processed by: cddbd v1.4PL0 Copyright (c) Steve Scherf et al.
# Submitted via: audiograbber 1.81.02
#
DISCID=a20a070b
DTITLE=Geronimo Trevino III - Hobo Without A Train
DYEAR=1994
DGENRE=Country
TTITLE0=It Doesn't Matter Anymore
TTITLE1=All Roads End in Beaumont
TTITLE2=Blue Moon over Breaux
TTITLE3=Soy De San Luis
TTITLE4=Cowboy Heros
TTITLE5=Killer Bea
TTITLE6=Without You
TTITLE7=Hobo Without A Train
TTITLE8=Maria Consuelo
TTITLE9=Renunciacion
TTITLE10=Because of You
EXTD=
EXTT0=
EXTT1=
EXTT2=
EXTT3=
EXTT4=
EXTT5=
EXTT6=
EXTT7=
EXTT8=
EXTT9=
EXTT10=
PLAYORDER=
